<mxfile host="app.diagrams.net" modified="2024-04-23T08:03:33.173Z" agent="Mozilla/5.0 (Windows NT 10.0; Win64; x64) AppleWebKit/537.36 (KHTML, like Gecko) Chrome/123.0.0.0 Safari/537.36" etag="6Ie9BO63kkET2inwHbx1" version="24.2.8" type="device">
  <diagram name="Page-1" id="TVMnE7DYtcwOSqiMBGxv">
    <mxGraphModel dx="1628" dy="1012" grid="1" gridSize="10" guides="1" tooltips="1" connect="1" arrows="1" fold="1" page="1" pageScale="1" pageWidth="850" pageHeight="1100" math="0" shadow="0">
      <root>
        <mxCell id="0" />
        <mxCell id="1" parent="0" />
        <mxCell id="Mh70MnB431RgSZ5SsmE1-3" style="edgeStyle=orthogonalEdgeStyle;rounded=0;orthogonalLoop=1;jettySize=auto;html=1;exitX=0.5;exitY=1;exitDx=0;exitDy=0;entryX=0.5;entryY=0;entryDx=0;entryDy=0;" parent="1" source="UnbhE5AMGjcurkw-3RXu-1" target="Mh70MnB431RgSZ5SsmE1-2" edge="1">
          <mxGeometry relative="1" as="geometry">
            <mxPoint x="420" y="420" as="sourcePoint" />
            <Array as="points">
              <mxPoint x="365" y="480" />
              <mxPoint x="365" y="480" />
            </Array>
          </mxGeometry>
        </mxCell>
        <mxCell id="UnbhE5AMGjcurkw-3RXu-4" value="No" style="edgeLabel;html=1;align=center;verticalAlign=middle;resizable=0;points=[];" parent="Mh70MnB431RgSZ5SsmE1-3" connectable="0" vertex="1">
          <mxGeometry x="0.0051" y="1" relative="1" as="geometry">
            <mxPoint as="offset" />
          </mxGeometry>
        </mxCell>
        <mxCell id="Mh70MnB431RgSZ5SsmE1-5" style="edgeStyle=orthogonalEdgeStyle;rounded=0;orthogonalLoop=1;jettySize=auto;html=1;entryX=0;entryY=0.75;entryDx=0;entryDy=0;" parent="1" source="Mh70MnB431RgSZ5SsmE1-2" target="Mh70MnB431RgSZ5SsmE1-19" edge="1">
          <mxGeometry relative="1" as="geometry">
            <mxPoint x="190" y="120" as="targetPoint" />
            <Array as="points">
              <mxPoint x="210" y="580" />
              <mxPoint x="210" y="110" />
            </Array>
          </mxGeometry>
        </mxCell>
        <mxCell id="Mh70MnB431RgSZ5SsmE1-6" value="No" style="edgeLabel;html=1;align=center;verticalAlign=middle;resizable=0;points=[];" parent="Mh70MnB431RgSZ5SsmE1-5" vertex="1" connectable="0">
          <mxGeometry x="0.1886" y="1" relative="1" as="geometry">
            <mxPoint as="offset" />
          </mxGeometry>
        </mxCell>
        <mxCell id="UnbhE5AMGjcurkw-3RXu-5" value="Yes" style="edgeStyle=orthogonalEdgeStyle;rounded=0;orthogonalLoop=1;jettySize=auto;html=1;entryX=0.5;entryY=0;entryDx=0;entryDy=0;exitX=0.5;exitY=1;exitDx=0;exitDy=0;" parent="1" source="Mh70MnB431RgSZ5SsmE1-2" target="Ka_47N_GlWbMdm5DU1Zv-6" edge="1">
          <mxGeometry relative="1" as="geometry">
            <Array as="points">
              <mxPoint x="365" y="650" />
              <mxPoint x="365" y="650" />
            </Array>
          </mxGeometry>
        </mxCell>
        <mxCell id="Mh70MnB431RgSZ5SsmE1-2" value="User wants to exit" style="rhombus;whiteSpace=wrap;html=1;" parent="1" vertex="1">
          <mxGeometry x="280" y="540" width="170" height="80" as="geometry" />
        </mxCell>
        <mxCell id="UnbhE5AMGjcurkw-3RXu-10" style="edgeStyle=orthogonalEdgeStyle;rounded=0;orthogonalLoop=1;jettySize=auto;html=1;entryX=1;entryY=0.5;entryDx=0;entryDy=0;" parent="1" source="Mh70MnB431RgSZ5SsmE1-7" target="UnbhE5AMGjcurkw-3RXu-9" edge="1">
          <mxGeometry relative="1" as="geometry">
            <Array as="points">
              <mxPoint x="895" y="625" />
            </Array>
          </mxGeometry>
        </mxCell>
        <mxCell id="UnbhE5AMGjcurkw-3RXu-11" value="Yes" style="edgeLabel;html=1;align=center;verticalAlign=middle;resizable=0;points=[];" parent="UnbhE5AMGjcurkw-3RXu-10" connectable="0" vertex="1">
          <mxGeometry x="-0.1793" relative="1" as="geometry">
            <mxPoint x="1" as="offset" />
          </mxGeometry>
        </mxCell>
        <mxCell id="Ka_47N_GlWbMdm5DU1Zv-22" style="edgeStyle=orthogonalEdgeStyle;rounded=0;orthogonalLoop=1;jettySize=auto;html=1;entryX=1;entryY=0.75;entryDx=0;entryDy=0;exitX=1;exitY=0.5;exitDx=0;exitDy=0;" edge="1" parent="1" source="Mh70MnB431RgSZ5SsmE1-7">
          <mxGeometry relative="1" as="geometry">
            <mxPoint x="1047.5" y="525" as="sourcePoint" />
            <mxPoint x="510" y="110" as="targetPoint" />
            <Array as="points">
              <mxPoint x="1070" y="525" />
              <mxPoint x="1070" y="110" />
            </Array>
          </mxGeometry>
        </mxCell>
        <mxCell id="Ka_47N_GlWbMdm5DU1Zv-23" value="No" style="edgeLabel;html=1;align=center;verticalAlign=middle;resizable=0;points=[];" vertex="1" connectable="0" parent="Ka_47N_GlWbMdm5DU1Zv-22">
          <mxGeometry x="-0.8018" relative="1" as="geometry">
            <mxPoint y="-22" as="offset" />
          </mxGeometry>
        </mxCell>
        <mxCell id="Mh70MnB431RgSZ5SsmE1-7" value="Chosen rent period&amp;nbsp;&lt;div&gt;lower&amp;nbsp;&lt;span style=&quot;background-color: initial;&quot;&gt;than or equal to&amp;nbsp;&lt;/span&gt;&lt;div&gt;&lt;div&gt;maximum rent period&lt;/div&gt;&lt;/div&gt;&lt;/div&gt;" style="rhombus;whiteSpace=wrap;html=1;" parent="1" vertex="1">
          <mxGeometry x="802.5" y="480" width="185" height="90" as="geometry" />
        </mxCell>
        <mxCell id="UnbhE5AMGjcurkw-3RXu-15" style="edgeStyle=orthogonalEdgeStyle;rounded=0;orthogonalLoop=1;jettySize=auto;html=1;entryX=1;entryY=0.5;entryDx=0;entryDy=0;exitX=0;exitY=0.5;exitDx=0;exitDy=0;" parent="1" source="Mh70MnB431RgSZ5SsmE1-15" target="Mh70MnB431RgSZ5SsmE1-37" edge="1">
          <mxGeometry relative="1" as="geometry">
            <Array as="points">
              <mxPoint x="730" y="970" />
              <mxPoint x="730" y="970" />
            </Array>
          </mxGeometry>
        </mxCell>
        <mxCell id="Ka_47N_GlWbMdm5DU1Zv-37" value="Yes" style="edgeLabel;html=1;align=center;verticalAlign=middle;resizable=0;points=[];" vertex="1" connectable="0" parent="UnbhE5AMGjcurkw-3RXu-15">
          <mxGeometry x="-0.2363" relative="1" as="geometry">
            <mxPoint as="offset" />
          </mxGeometry>
        </mxCell>
        <mxCell id="Ka_47N_GlWbMdm5DU1Zv-35" style="edgeStyle=orthogonalEdgeStyle;rounded=0;orthogonalLoop=1;jettySize=auto;html=1;entryX=1;entryY=0.5;entryDx=0;entryDy=0;" edge="1" parent="1" source="Mh70MnB431RgSZ5SsmE1-15" target="Ka_47N_GlWbMdm5DU1Zv-30">
          <mxGeometry relative="1" as="geometry">
            <Array as="points">
              <mxPoint x="1070" y="970" />
              <mxPoint x="1070" y="780" />
            </Array>
          </mxGeometry>
        </mxCell>
        <mxCell id="Ka_47N_GlWbMdm5DU1Zv-36" value="No" style="edgeLabel;html=1;align=center;verticalAlign=middle;resizable=0;points=[];" vertex="1" connectable="0" parent="Ka_47N_GlWbMdm5DU1Zv-35">
          <mxGeometry x="-0.0552" relative="1" as="geometry">
            <mxPoint as="offset" />
          </mxGeometry>
        </mxCell>
        <mxCell id="Mh70MnB431RgSZ5SsmE1-15" value="User payment greater&amp;nbsp;&lt;div&gt;than or equal to bill amount&lt;/div&gt;" style="rhombus;whiteSpace=wrap;html=1;" parent="1" vertex="1">
          <mxGeometry x="801.25" y="920" width="200" height="100" as="geometry" />
        </mxCell>
        <mxCell id="Ka_47N_GlWbMdm5DU1Zv-4" style="edgeStyle=orthogonalEdgeStyle;rounded=0;orthogonalLoop=1;jettySize=auto;html=1;entryX=0.5;entryY=0;entryDx=0;entryDy=0;" edge="1" parent="1" source="Mh70MnB431RgSZ5SsmE1-19" target="UnbhE5AMGjcurkw-3RXu-1">
          <mxGeometry relative="1" as="geometry" />
        </mxCell>
        <mxCell id="Mh70MnB431RgSZ5SsmE1-19" value="Display rent menu options" style="rounded=1;whiteSpace=wrap;html=1;" parent="1" vertex="1">
          <mxGeometry x="280" y="50" width="170" height="80" as="geometry" />
        </mxCell>
        <mxCell id="Ka_47N_GlWbMdm5DU1Zv-5" style="edgeStyle=orthogonalEdgeStyle;rounded=0;orthogonalLoop=1;jettySize=auto;html=1;entryX=0;entryY=0.25;entryDx=0;entryDy=0;" edge="1" parent="1" source="Mh70MnB431RgSZ5SsmE1-22" target="Mh70MnB431RgSZ5SsmE1-19">
          <mxGeometry relative="1" as="geometry">
            <Array as="points">
              <mxPoint x="240" y="70" />
              <mxPoint x="240" y="70" />
            </Array>
          </mxGeometry>
        </mxCell>
        <mxCell id="Mh70MnB431RgSZ5SsmE1-22" value="Rent" style="ellipse;whiteSpace=wrap;html=1;" parent="1" vertex="1">
          <mxGeometry x="120" y="40" width="60" height="60" as="geometry" />
        </mxCell>
        <mxCell id="Ka_47N_GlWbMdm5DU1Zv-39" style="edgeStyle=orthogonalEdgeStyle;rounded=0;orthogonalLoop=1;jettySize=auto;html=1;entryX=0;entryY=0.5;entryDx=0;entryDy=0;" edge="1" parent="1" source="Mh70MnB431RgSZ5SsmE1-37" target="Ka_47N_GlWbMdm5DU1Zv-38">
          <mxGeometry relative="1" as="geometry">
            <Array as="points">
              <mxPoint x="570" y="1160" />
            </Array>
          </mxGeometry>
        </mxCell>
        <mxCell id="Mh70MnB431RgSZ5SsmE1-37" value="Calculate change" style="rounded=1;whiteSpace=wrap;html=1;" parent="1" vertex="1">
          <mxGeometry x="486.88" y="936.25" width="171.25" height="67.5" as="geometry" />
        </mxCell>
        <mxCell id="Ka_47N_GlWbMdm5DU1Zv-8" style="edgeStyle=orthogonalEdgeStyle;rounded=0;orthogonalLoop=1;jettySize=auto;html=1;entryX=0;entryY=0.5;entryDx=0;entryDy=0;" edge="1" parent="1">
          <mxGeometry relative="1" as="geometry">
            <mxPoint x="445" y="350" as="sourcePoint" />
            <mxPoint x="525" y="182.5" as="targetPoint" />
            <Array as="points">
              <mxPoint x="445" y="182.5" />
            </Array>
          </mxGeometry>
        </mxCell>
        <mxCell id="Ka_47N_GlWbMdm5DU1Zv-26" value="Yes" style="edgeLabel;html=1;align=center;verticalAlign=middle;resizable=0;points=[];" vertex="1" connectable="0" parent="Ka_47N_GlWbMdm5DU1Zv-8">
          <mxGeometry x="-0.0218" relative="1" as="geometry">
            <mxPoint as="offset" />
          </mxGeometry>
        </mxCell>
        <mxCell id="UnbhE5AMGjcurkw-3RXu-1" value="User wants to rent a book" style="rhombus;whiteSpace=wrap;html=1;" parent="1" vertex="1">
          <mxGeometry x="285" y="310" width="160" height="80" as="geometry" />
        </mxCell>
        <mxCell id="UnbhE5AMGjcurkw-3RXu-12" style="edgeStyle=orthogonalEdgeStyle;rounded=0;orthogonalLoop=1;jettySize=auto;html=1;exitX=0.5;exitY=1;exitDx=0;exitDy=0;" parent="1" source="UnbhE5AMGjcurkw-3RXu-9" target="Ka_47N_GlWbMdm5DU1Zv-27" edge="1">
          <mxGeometry relative="1" as="geometry">
            <Array as="points" />
            <mxPoint x="570" y="740" as="targetPoint" />
          </mxGeometry>
        </mxCell>
        <mxCell id="UnbhE5AMGjcurkw-3RXu-9" value="Chosen book added to bill" style="rounded=1;whiteSpace=wrap;html=1;" parent="1" vertex="1">
          <mxGeometry x="490" y="590" width="160" height="70" as="geometry" />
        </mxCell>
        <mxCell id="Ka_47N_GlWbMdm5DU1Zv-6" value="Exit" style="ellipse;whiteSpace=wrap;html=1;" vertex="1" parent="1">
          <mxGeometry x="335" y="690" width="60" height="60" as="geometry" />
        </mxCell>
        <mxCell id="Ka_47N_GlWbMdm5DU1Zv-10" style="edgeStyle=orthogonalEdgeStyle;rounded=0;orthogonalLoop=1;jettySize=auto;html=1;entryX=0;entryY=0.5;entryDx=0;entryDy=0;" edge="1" parent="1" source="Ka_47N_GlWbMdm5DU1Zv-7" target="Ka_47N_GlWbMdm5DU1Zv-9">
          <mxGeometry relative="1" as="geometry" />
        </mxCell>
        <mxCell id="Ka_47N_GlWbMdm5DU1Zv-7" value="Prompt user for book index that they want to rent" style="rounded=1;whiteSpace=wrap;html=1;" vertex="1" parent="1">
          <mxGeometry x="520" y="140" width="180" height="80" as="geometry" />
        </mxCell>
        <mxCell id="Ka_47N_GlWbMdm5DU1Zv-11" style="edgeStyle=orthogonalEdgeStyle;rounded=0;orthogonalLoop=1;jettySize=auto;html=1;exitX=0.5;exitY=0;exitDx=0;exitDy=0;entryX=1;entryY=0.75;entryDx=0;entryDy=0;" edge="1" parent="1" source="Ka_47N_GlWbMdm5DU1Zv-9" target="Mh70MnB431RgSZ5SsmE1-19">
          <mxGeometry relative="1" as="geometry" />
        </mxCell>
        <mxCell id="Ka_47N_GlWbMdm5DU1Zv-12" value="No" style="edgeLabel;html=1;align=center;verticalAlign=middle;resizable=0;points=[];" vertex="1" connectable="0" parent="Ka_47N_GlWbMdm5DU1Zv-11">
          <mxGeometry x="0.0596" y="-1" relative="1" as="geometry">
            <mxPoint x="132" y="-9" as="offset" />
          </mxGeometry>
        </mxCell>
        <mxCell id="Ka_47N_GlWbMdm5DU1Zv-13" style="edgeStyle=orthogonalEdgeStyle;rounded=0;orthogonalLoop=1;jettySize=auto;html=1;entryX=0.5;entryY=0;entryDx=0;entryDy=0;" edge="1" parent="1" source="Ka_47N_GlWbMdm5DU1Zv-9" target="Ka_47N_GlWbMdm5DU1Zv-14">
          <mxGeometry relative="1" as="geometry">
            <mxPoint x="895" y="330" as="targetPoint" />
          </mxGeometry>
        </mxCell>
        <mxCell id="Ka_47N_GlWbMdm5DU1Zv-17" value="Yes" style="edgeLabel;html=1;align=center;verticalAlign=middle;resizable=0;points=[];" vertex="1" connectable="0" parent="Ka_47N_GlWbMdm5DU1Zv-13">
          <mxGeometry x="-0.073" relative="1" as="geometry">
            <mxPoint as="offset" />
          </mxGeometry>
        </mxCell>
        <mxCell id="Ka_47N_GlWbMdm5DU1Zv-9" value="Book index found" style="rhombus;whiteSpace=wrap;html=1;" vertex="1" parent="1">
          <mxGeometry x="810" y="135" width="170" height="90" as="geometry" />
        </mxCell>
        <mxCell id="Ka_47N_GlWbMdm5DU1Zv-15" style="edgeStyle=orthogonalEdgeStyle;rounded=0;orthogonalLoop=1;jettySize=auto;html=1;entryX=1;entryY=0.75;entryDx=0;entryDy=0;exitX=1;exitY=0.5;exitDx=0;exitDy=0;" edge="1" parent="1" source="Ka_47N_GlWbMdm5DU1Zv-14" target="Mh70MnB431RgSZ5SsmE1-19">
          <mxGeometry relative="1" as="geometry">
            <Array as="points">
              <mxPoint x="1070" y="425" />
              <mxPoint x="1070" y="110" />
            </Array>
          </mxGeometry>
        </mxCell>
        <mxCell id="Ka_47N_GlWbMdm5DU1Zv-16" value="No" style="edgeLabel;html=1;align=center;verticalAlign=middle;resizable=0;points=[];" vertex="1" connectable="0" parent="Ka_47N_GlWbMdm5DU1Zv-15">
          <mxGeometry x="-0.6125" y="-1" relative="1" as="geometry">
            <mxPoint as="offset" />
          </mxGeometry>
        </mxCell>
        <mxCell id="Ka_47N_GlWbMdm5DU1Zv-19" style="edgeStyle=orthogonalEdgeStyle;rounded=0;orthogonalLoop=1;jettySize=auto;html=1;entryX=1;entryY=0.5;entryDx=0;entryDy=0;" edge="1" parent="1" source="Ka_47N_GlWbMdm5DU1Zv-14" target="Ka_47N_GlWbMdm5DU1Zv-18">
          <mxGeometry relative="1" as="geometry">
            <mxPoint x="690" y="370" as="targetPoint" />
          </mxGeometry>
        </mxCell>
        <mxCell id="Ka_47N_GlWbMdm5DU1Zv-20" value="Yes" style="edgeLabel;html=1;align=center;verticalAlign=middle;resizable=0;points=[];" vertex="1" connectable="0" parent="Ka_47N_GlWbMdm5DU1Zv-19">
          <mxGeometry x="-0.2089" y="2" relative="1" as="geometry">
            <mxPoint x="-12" y="-2" as="offset" />
          </mxGeometry>
        </mxCell>
        <mxCell id="Ka_47N_GlWbMdm5DU1Zv-14" value="Book is available for rent" style="rhombus;whiteSpace=wrap;html=1;" vertex="1" parent="1">
          <mxGeometry x="810" y="385" width="170" height="80" as="geometry" />
        </mxCell>
        <mxCell id="Ka_47N_GlWbMdm5DU1Zv-21" style="edgeStyle=orthogonalEdgeStyle;rounded=0;orthogonalLoop=1;jettySize=auto;html=1;entryX=0;entryY=0.5;entryDx=0;entryDy=0;exitX=0.5;exitY=1;exitDx=0;exitDy=0;" edge="1" parent="1" source="Ka_47N_GlWbMdm5DU1Zv-18" target="Mh70MnB431RgSZ5SsmE1-7">
          <mxGeometry relative="1" as="geometry">
            <Array as="points">
              <mxPoint x="568" y="525" />
            </Array>
          </mxGeometry>
        </mxCell>
        <mxCell id="Ka_47N_GlWbMdm5DU1Zv-18" value="Prompt user for the amount of days they would like to rent the book" style="rounded=1;whiteSpace=wrap;html=1;" vertex="1" parent="1">
          <mxGeometry x="495" y="390" width="155" height="70" as="geometry" />
        </mxCell>
        <mxCell id="Ka_47N_GlWbMdm5DU1Zv-28" style="edgeStyle=orthogonalEdgeStyle;rounded=0;orthogonalLoop=1;jettySize=auto;html=1;entryX=0.5;entryY=1;entryDx=0;entryDy=0;" edge="1" parent="1" source="Ka_47N_GlWbMdm5DU1Zv-27" target="Ka_47N_GlWbMdm5DU1Zv-7">
          <mxGeometry relative="1" as="geometry">
            <Array as="points">
              <mxPoint x="470" y="780" />
              <mxPoint x="470" y="310" />
              <mxPoint x="610" y="310" />
            </Array>
          </mxGeometry>
        </mxCell>
        <mxCell id="Ka_47N_GlWbMdm5DU1Zv-29" value="No" style="edgeLabel;html=1;align=center;verticalAlign=middle;resizable=0;points=[];" vertex="1" connectable="0" parent="Ka_47N_GlWbMdm5DU1Zv-28">
          <mxGeometry x="-0.277" y="2" relative="1" as="geometry">
            <mxPoint as="offset" />
          </mxGeometry>
        </mxCell>
        <mxCell id="Ka_47N_GlWbMdm5DU1Zv-31" style="edgeStyle=orthogonalEdgeStyle;rounded=0;orthogonalLoop=1;jettySize=auto;html=1;entryX=0;entryY=0.5;entryDx=0;entryDy=0;" edge="1" parent="1" source="Ka_47N_GlWbMdm5DU1Zv-27" target="Ka_47N_GlWbMdm5DU1Zv-30">
          <mxGeometry relative="1" as="geometry" />
        </mxCell>
        <mxCell id="Ka_47N_GlWbMdm5DU1Zv-27" value="User wants to finalize bill" style="rhombus;whiteSpace=wrap;html=1;" vertex="1" parent="1">
          <mxGeometry x="492.5" y="740" width="155" height="80" as="geometry" />
        </mxCell>
        <mxCell id="Ka_47N_GlWbMdm5DU1Zv-32" style="edgeStyle=orthogonalEdgeStyle;rounded=0;orthogonalLoop=1;jettySize=auto;html=1;entryX=0.5;entryY=0;entryDx=0;entryDy=0;" edge="1" parent="1" source="Ka_47N_GlWbMdm5DU1Zv-30" target="Mh70MnB431RgSZ5SsmE1-15">
          <mxGeometry relative="1" as="geometry" />
        </mxCell>
        <mxCell id="Ka_47N_GlWbMdm5DU1Zv-30" value="Display final bill and prompt user for payment" style="rounded=1;whiteSpace=wrap;html=1;" vertex="1" parent="1">
          <mxGeometry x="822.5" y="745" width="157.5" height="70" as="geometry" />
        </mxCell>
        <mxCell id="Ka_47N_GlWbMdm5DU1Zv-40" style="edgeStyle=orthogonalEdgeStyle;rounded=0;orthogonalLoop=1;jettySize=auto;html=1;entryX=1;entryY=0.25;entryDx=0;entryDy=0;" edge="1" parent="1" source="Ka_47N_GlWbMdm5DU1Zv-38" target="Mh70MnB431RgSZ5SsmE1-19">
          <mxGeometry relative="1" as="geometry">
            <Array as="points">
              <mxPoint x="1140" y="1160" />
              <mxPoint x="1140" y="70" />
            </Array>
          </mxGeometry>
        </mxCell>
        <mxCell id="Ka_47N_GlWbMdm5DU1Zv-38" value="Display that user has successfully rented book" style="rounded=1;whiteSpace=wrap;html=1;" vertex="1" parent="1">
          <mxGeometry x="811.25" y="1120" width="180" height="80" as="geometry" />
        </mxCell>
      </root>
    </mxGraphModel>
  </diagram>
</mxfile>
